<svg width="150" height="35" viewBox="0 0 150 35" fill="none" xmlns="http://www.w3.org/2000/svg">
<g clip-path="url(#clip0_1_607)">
<mask id="mask0_1_607" style="mask-type:luminance" maskUnits="userSpaceOnUse" x="1" y="0" width="148" height="35">
<path d="M148.917 0.778198H1.08484V34.8933H148.917V0.778198Z" fill="white"/>
</mask>
<g mask="url(#mask0_1_607)">
<path d="M17.7201 0.778198C8.79994 0.778198 1.56885 7.83936 1.56885 16.55C1.56885 25.2605 8.79994 32.3217 17.7201 32.3217C26.6404 32.3217 33.8714 25.2605 33.8714 16.55C33.8714 7.83936 26.6404 0.778198 17.7201 0.778198ZM19.169 26.9247C19.1632 26.9247 19.1595 26.9247 19.1539 26.9247C19.1256 26.9247 19.099 26.9154 19.0783 26.897C19.0536 26.8767 19.0403 26.8452 19.0403 26.8138V22.4328C19.0403 22.3809 19.0764 22.3366 19.1275 22.3256C21.3309 21.8195 23.0881 20.1017 23.6083 17.9481C23.6197 17.8983 23.665 17.8632 23.7179 17.8632H28.2027C28.2347 17.8632 28.2669 17.8761 28.2877 17.9002C28.3086 17.9241 28.3199 17.9555 28.3143 17.9888C27.6825 22.6322 23.9204 26.3059 19.169 26.9247ZM28.2083 15.3364C28.2064 15.3364 28.2045 15.3364 28.2027 15.3364H23.716C23.6631 15.3364 23.6177 15.3013 23.6064 15.2514C22.9613 12.5732 20.5497 10.7041 17.7427 10.7041C14.4118 10.7041 11.7034 13.349 11.7034 16.6016C11.7034 19.3426 13.6176 21.6977 16.3602 22.3274C16.4112 22.3384 16.4472 22.3828 16.4472 22.4345V26.8157C16.4472 26.8471 16.4339 26.8767 16.4094 26.8988C16.3884 26.9173 16.3621 26.9265 16.3336 26.9265C16.328 26.9265 16.3242 26.9265 16.3185 26.9265C11.0432 26.2375 7.06545 21.7993 7.06545 16.6035C7.06545 10.8537 11.8565 6.17521 17.7427 6.17521C23.0541 6.17521 27.5898 10.0447 28.3105 15.1795C28.318 15.1942 28.3217 15.2109 28.3217 15.2275C28.3217 15.2866 28.2707 15.3364 28.2083 15.3364Z" fill="#333333"/>
<path d="M43.1831 16.5738C43.1831 15.1111 43.4668 13.7166 44.0361 12.3904C44.6055 11.0643 45.3792 9.91912 46.3607 8.95495C47.3424 7.9908 48.5227 7.22244 49.9054 6.64987C51.2862 6.07913 52.7539 5.79285 54.3087 5.79285C55.8636 5.79285 57.3218 6.08098 58.6838 6.65725C60.0456 7.23353 61.2429 8.03882 62.2718 9.0713L59.9113 11.6645C58.4511 10.0004 56.5823 9.16735 54.3069 9.16735C52.9488 9.16735 51.7042 9.50537 50.5711 10.1832C49.4382 10.8611 48.5511 11.7679 47.9099 12.9057C47.2686 14.0435 46.9471 15.2773 46.9471 16.6016C46.9471 17.937 47.2782 19.1671 47.9383 20.2919C48.5983 21.4167 49.495 22.307 50.628 22.9591C51.7609 23.613 52.998 23.9399 54.3371 23.9399C55.3206 23.9399 56.2967 23.7274 57.2651 23.3026C58.2335 22.8777 59.0601 22.3219 59.7448 21.6367L61.9635 24.215C60.9327 25.1848 59.7693 25.9438 58.4719 26.4925C57.1743 27.041 55.7954 27.3162 54.3352 27.3162C52.3227 27.3162 50.4633 26.847 48.7572 25.9106C47.0512 24.9741 45.6969 23.6795 44.6905 22.0282C43.6861 20.3769 43.1831 18.5595 43.1831 16.5738ZM64.4224 26.945V6.14932H67.9614V14.5901C68.3075 14.3335 68.6007 14.1341 68.8389 13.9918C69.0774 13.8495 69.4462 13.7074 69.9418 13.5652C70.4373 13.4229 70.9764 13.3509 71.557 13.3509C72.325 13.3509 73.0363 13.4654 73.6924 13.6944C74.3488 13.9234 74.9371 14.2651 75.4629 14.7232C75.9868 15.1813 76.3973 15.7963 76.6924 16.5683C76.9874 17.3405 77.135 18.2344 77.135 19.2503V26.945H73.5941V19.821C73.5941 17.7208 72.6521 16.6699 70.7702 16.6699C68.8977 16.6699 67.9614 17.7025 67.9614 19.7656V26.9431H64.4224V26.945ZM80.2124 10.7447C79.7811 10.3236 79.5655 9.80825 79.5655 9.19506C79.5655 8.58185 79.7811 8.06838 80.2124 7.65094C80.6437 7.23537 81.1771 7.02665 81.8145 7.02665C82.4425 7.02665 82.9664 7.23168 83.3882 7.64356C83.81 8.05545 84.0199 8.5726 84.0199 9.19321C84.0199 9.81563 83.81 10.3347 83.3882 10.7503C82.9664 11.1658 82.4425 11.3746 81.8145 11.3746C81.1771 11.3764 80.6418 11.1658 80.2124 10.7447ZM80.029 26.945V13.5983H83.5679V26.945H80.029ZM86.7589 34.0504V13.5983H90.2977V14.5901C91.338 13.7646 92.6016 13.3509 94.0902 13.3509C96.0986 13.3509 97.807 14.0288 99.2145 15.3827C100.622 16.7365 101.325 18.384 101.325 20.3252C101.325 21.5867 101.005 22.7541 100.364 23.8271C99.7234 24.9003 98.8465 25.7499 97.7351 26.376C96.6227 27.0021 95.4081 27.3144 94.0902 27.3144C92.6016 27.3144 91.3361 26.9024 90.2977 26.0806V34.0504H86.7589ZM90.2997 20.4896C90.3469 21.4481 90.7366 22.272 91.4723 22.9609C92.2081 23.6499 93.0801 23.9953 94.092 23.9953C95.1229 23.9953 96.0069 23.6333 96.7475 22.9074C97.4873 22.1815 97.8581 21.3207 97.8581 20.327C97.8581 19.3408 97.4873 18.4856 96.7475 17.7597C96.0088 17.0338 95.1229 16.6718 94.092 16.6718C93.0801 16.6718 92.2081 17.019 91.4723 17.7116C90.7366 18.4062 90.3469 19.2262 90.2997 20.1757V20.4896ZM103.349 34.0504V13.5983H106.888V14.5901C107.928 13.7646 109.191 13.3509 110.68 13.3509C112.689 13.3509 114.397 14.0288 115.804 15.3827C117.211 16.7365 117.915 18.384 117.915 20.3252C117.915 21.5867 117.596 22.7541 116.954 23.8271C116.314 24.9003 115.437 25.7499 114.325 26.376C113.213 27.0021 111.998 27.3144 110.68 27.3144C109.191 27.3144 107.926 26.9024 106.888 26.0806V34.0504H103.349ZM106.89 20.4896C106.937 21.4481 107.326 22.272 108.063 22.9609C108.798 23.6499 109.67 23.9953 110.682 23.9953C111.713 23.9953 112.597 23.6333 113.338 22.9074C114.078 22.1815 114.448 21.3207 114.448 20.327C114.448 19.3408 114.078 18.4856 113.338 17.7597C112.598 17.0338 111.713 16.6718 110.682 16.6718C109.67 16.6718 108.798 17.019 108.063 17.7116C107.326 18.4062 106.937 19.2262 106.89 20.1757V20.4896ZM119.28 20.401C119.28 19.4589 119.447 18.5614 119.78 17.7061C120.113 16.8509 120.578 16.101 121.178 15.4565C121.778 14.8119 122.525 14.3003 123.417 13.9198C124.313 13.5411 125.289 13.3509 126.345 13.3509C127.656 13.3509 128.841 13.6705 129.9 14.3113C130.957 14.9522 131.777 15.8 132.358 16.8565C132.939 17.9129 133.229 19.0674 133.229 20.3196C133.229 20.7131 133.2 21.0788 133.144 21.4167H122.722C122.927 22.2534 123.364 22.9221 124.035 23.4226C124.703 23.9231 125.534 24.1726 126.527 24.1726C127.183 24.1726 127.809 24.0506 128.41 23.8051C129.009 23.5593 129.501 23.19 129.884 22.6986L132.299 24.5716C131.68 25.4266 130.862 26.0953 129.842 26.583C128.82 27.0688 127.726 27.3125 126.554 27.3125C125.205 27.3125 123.973 27.0115 122.859 26.4075C121.745 25.8034 120.869 24.9724 120.232 23.9103C119.601 22.852 119.28 21.6809 119.28 20.401ZM122.85 18.879H129.662C129.561 18.203 129.19 17.636 128.552 17.1779C127.916 16.7217 127.172 16.4927 126.319 16.4927C125.504 16.4927 124.788 16.7107 124.171 17.1446C123.552 17.5787 123.11 18.1569 122.85 18.879ZM135.43 26.945V13.5983H138.969V14.5901C139.623 14.1137 140.329 13.7867 141.084 13.6132C141.839 13.4395 142.884 13.3509 144.223 13.3509V16.6699C143.334 16.6699 142.573 16.7198 141.94 16.8214C141.309 16.9211 140.8 17.0616 140.416 17.2389C140.032 17.4161 139.733 17.6618 139.517 17.972C139.303 18.2824 139.155 18.6093 139.082 18.9511C139.007 19.2928 138.971 19.7121 138.971 20.2052V26.945H135.43ZM144.223 8.04252C144.223 7.78763 144.275 7.54382 144.376 7.31295C144.48 7.08206 144.616 6.88258 144.787 6.71636C144.959 6.55013 145.164 6.41714 145.399 6.31923C145.639 6.22136 145.886 6.17149 146.146 6.17149C146.405 6.17149 146.652 6.22136 146.889 6.31923C147.126 6.41898 147.328 6.55197 147.496 6.7182C147.668 6.88444 147.804 7.08575 147.904 7.31663C148.004 7.54752 148.056 7.78763 148.056 8.03882C148.056 8.29002 148.004 8.53013 147.904 8.76287C147.802 8.99557 147.668 9.19506 147.495 9.36314C147.325 9.53119 147.122 9.66419 146.884 9.76578C146.649 9.86558 146.4 9.91543 146.14 9.91543C145.793 9.91543 145.475 9.83228 145.179 9.66608C144.886 9.49979 144.651 9.27263 144.48 8.9845C144.309 8.69636 144.223 8.38237 144.223 8.04252ZM144.585 8.04252C144.585 8.24569 144.625 8.43777 144.705 8.62249C144.787 8.80719 144.897 8.96603 145.036 9.10086C145.173 9.23569 145.338 9.34282 145.531 9.42409C145.724 9.50348 145.926 9.54415 146.142 9.54415C146.425 9.54415 146.689 9.47586 146.926 9.34098C147.165 9.20616 147.354 9.02329 147.49 8.7924C147.628 8.56338 147.697 8.31218 147.697 8.04067C147.697 7.76548 147.628 7.50872 147.49 7.27415C147.354 7.03958 147.165 6.85118 146.922 6.71266C146.683 6.57413 146.419 6.50395 146.136 6.50395C145.851 6.50395 145.59 6.57413 145.352 6.71266C145.115 6.85118 144.927 7.03774 144.79 7.27415C144.653 7.50872 144.585 7.76548 144.585 8.04252ZM145.389 9.10271V6.97124H146.055C146.138 6.97124 146.21 6.97309 146.269 6.97494C146.327 6.97678 146.392 6.98418 146.466 6.99341C146.542 7.00264 146.603 7.01558 146.652 7.03221C146.703 7.04883 146.754 7.07098 146.806 7.10238C146.857 7.13194 146.898 7.16887 146.93 7.20951C146.962 7.25015 146.986 7.30187 147.008 7.36466C147.027 7.42747 147.038 7.49765 147.038 7.57521C147.038 7.91876 146.858 8.12933 146.497 8.2106L147.038 9.10825H146.601L146.079 8.24016H145.753V9.10455H145.389V9.10271ZM145.753 7.92062H146.151C146.229 7.92062 146.296 7.91693 146.352 7.90953C146.406 7.90215 146.459 7.88921 146.51 7.86705C146.56 7.84673 146.598 7.81349 146.624 7.76916C146.651 7.72483 146.664 7.66942 146.664 7.60108C146.664 7.47918 146.622 7.39605 146.537 7.35543C146.451 7.31479 146.322 7.29263 146.151 7.29263H145.753V7.92062Z" fill="#333333"/>
</g>
</g>
<defs>
<clipPath id="clip0_1_607">
<rect width="148.51" height="34.9992" fill="white" transform="translate(0.670044 0.000366211)"/>
</clipPath>
</defs>
</svg>
