<svg width="97" height="35" viewBox="0 0 97 35" fill="none" xmlns="http://www.w3.org/2000/svg">
<g clip-path="url(#clip0_1_588)">
<path d="M5.5486 24.7869C5.95615 25.8728 6.5204 26.8013 7.24145 27.5724C7.96247 28.3435 8.81671 28.9336 9.80407 29.3428C10.7916 29.752 11.8652 29.9566 13.0252 29.9566C14.1538 29.9566 15.2117 29.7442 16.1992 29.3192C17.1868 28.8942 18.0488 28.2961 18.7854 27.5251C19.5221 26.7541 20.0942 25.8334 20.5018 24.7633C20.9094 23.6932 21.113 22.4971 21.113 21.175V0.779419H26.0504V33.8279H21.1601V30.7591C20.0628 31.9236 18.7697 32.8207 17.2807 33.4502C15.7916 34.0797 14.1851 34.3945 12.461 34.3945C10.7054 34.3945 9.06746 34.0876 7.54702 33.4738C6.0267 32.8601 4.70998 31.9868 3.59721 30.8535C2.48443 29.7205 1.60658 28.3593 0.963996 26.7698C0.321295 25.1803 0 23.4099 0 21.4583V0.779419H4.93733V21.175C4.93733 22.4971 5.14104 23.7009 5.5486 24.7869Z" fill="#333333"/>
<path d="M34.5624 0.778931V12.8181C35.6594 11.7164 36.9291 10.8431 38.3712 10.1978C39.8131 9.5525 41.3805 9.22989 43.0732 9.22989C44.8289 9.22989 46.4744 9.56035 48.0107 10.2212C49.5467 10.8822 50.8789 11.7793 52.0075 12.9125C53.136 14.0456 54.0294 15.3832 54.6878 16.9255C55.3462 18.4678 55.6752 20.1046 55.6752 21.8356C55.6752 23.5666 55.3462 25.1955 54.6878 26.722C54.0294 28.2485 53.136 29.5784 52.0075 30.7113C50.8789 31.8446 49.5467 32.7416 48.0107 33.4024C46.4744 34.0634 44.8288 34.3939 43.0732 34.3939C41.3804 34.3939 39.8053 34.0714 38.3475 33.426C36.8899 32.7809 35.6124 31.9074 34.5152 30.8057V33.8274H29.8131V0.778931H34.5624ZM35.103 25.0932C35.5262 26.1004 36.114 26.9817 36.8664 27.7371C37.6187 28.4926 38.4965 29.0905 39.4996 29.5313C40.5028 29.9719 41.5843 30.1922 42.7443 30.1922C43.8728 30.1922 44.9385 29.9719 45.9417 29.5313C46.9447 29.0905 47.8146 28.4927 48.5514 27.7371C49.2881 26.9818 49.8758 26.1004 50.3147 25.0932C50.7535 24.086 50.9731 23.0003 50.9731 21.8356C50.9731 20.671 50.7535 19.5772 50.3147 18.5543C49.8758 17.5314 49.2881 16.6423 48.5514 15.8868C47.8148 15.1315 46.9449 14.5413 45.9417 14.1165C44.9384 13.6916 43.8726 13.4789 42.7443 13.4789C41.6157 13.4789 40.5498 13.6915 39.5468 14.1165C38.5436 14.5414 37.6659 15.1315 36.9134 15.8868C36.1611 16.6423 35.5655 17.5314 35.1267 18.5543C34.6878 19.5772 34.4683 20.671 34.4683 21.8356C34.4682 23.0003 34.6798 24.086 35.103 25.0932Z" fill="#333333"/>
<path d="M58.3535 16.9728C58.9804 15.4619 59.8425 14.1321 60.9396 12.9833C62.0367 11.8345 63.3378 10.9296 64.8426 10.2686C66.3473 9.60766 67.9775 9.27722 69.7329 9.27722C71.457 9.27722 73.0558 9.59196 74.5292 10.2214C76.0026 10.8509 77.2722 11.7244 78.3379 12.8417C79.4038 13.959 80.2347 15.2812 80.8301 16.8076C81.4258 18.3341 81.7236 19.9945 81.7236 21.7885V23.3466H62.2093C62.3662 24.3223 62.6796 25.2272 63.1499 26.0611C63.6202 26.8952 64.2079 27.6192 64.9132 28.2329C65.6185 28.8467 66.4178 29.3267 67.3112 29.6729C68.2048 30.0191 69.1529 30.1923 70.1561 30.1923C73.0089 30.1923 75.3131 29.0119 77.0685 26.6512L80.5011 29.2008C79.3098 30.806 77.8366 32.0649 76.081 32.9777C74.3255 33.8904 72.3506 34.3468 70.1563 34.3468C68.3693 34.3468 66.7002 34.032 65.1484 33.4026C63.5966 32.7731 62.2487 31.8917 61.1045 30.7586C59.9603 29.6255 59.059 28.2956 58.4008 26.7692C57.7425 25.2427 57.4132 23.5823 57.4132 21.7884C57.4131 20.0887 57.7266 18.4834 58.3535 16.9728ZM64.9602 15.1078C63.6278 16.225 62.7423 17.7124 62.3035 19.5693H76.9274C76.5199 17.7124 75.6499 16.225 74.3176 15.1078C72.9854 13.9905 71.4257 13.4318 69.639 13.4318C67.852 13.4318 66.2925 13.9905 64.9602 15.1078Z" fill="#333333"/>
<path d="M90.6109 15.6507C89.6077 16.7523 89.1061 18.2473 89.1061 20.1359V33.8275H84.3567V9.74929H89.059V12.7236C89.6546 11.7479 90.4305 10.9768 91.3866 10.4102C92.3427 9.84359 93.4791 9.5603 94.7954 9.5603H96.4412V13.9982H94.4666C92.8991 13.9983 91.6139 14.5491 90.6109 15.6507Z" fill="#333333"/>
</g>
<defs>
<clipPath id="clip0_1_588">
<rect width="96.48" height="34.9976" fill="white" transform="translate(0 0.0012207)"/>
</clipPath>
</defs>
</svg>
