<svg width="165" height="35" viewBox="0 0 165 35" fill="none" xmlns="http://www.w3.org/2000/svg">
<g clip-path="url(#clip0_1_641)">
<mask id="mask0_1_641" style="mask-type:luminance" maskUnits="userSpaceOnUse" x="0" y="0" width="165" height="35">
<path d="M164.3 0.000610352H0V34.8521H164.3V0.000610352Z" fill="white"/>
</mask>
<g mask="url(#mask0_1_641)">
<path d="M164.3 15.7675V12.8981H160.712V8.4372L160.591 8.47413L157.221 9.49818L157.154 9.51821V12.8983H151.835V11.0153C151.835 10.1385 152.032 9.46755 152.422 9.02008C152.808 8.57799 153.361 8.35323 154.066 8.35323C154.572 8.35323 155.096 8.47177 155.624 8.70552L155.757 8.76423V5.7423L155.695 5.71958C155.202 5.54375 154.532 5.4552 153.702 5.4552C152.655 5.4552 151.704 5.68138 150.875 6.12963C150.045 6.57852 149.392 7.21933 148.936 8.03409C148.48 8.84789 148.248 9.7878 148.248 10.8279V12.8981H145.75V15.7675H148.248V27.8561H151.835V15.7675H157.154V23.4496C157.154 26.6135 158.657 28.2167 161.621 28.2167C162.108 28.2167 162.62 28.1601 163.144 28.0491C163.677 27.9352 164.039 27.8214 164.253 27.6998L164.3 27.6721V24.776L164.154 24.8719C163.96 25.0007 163.718 25.106 163.433 25.1843C163.148 25.264 162.909 25.3038 162.724 25.3038C162.03 25.3038 161.517 25.1182 161.198 24.7514C160.876 24.3815 160.712 23.7345 160.712 22.8295V15.7675H164.3ZM137.74 25.3043C136.438 25.3043 135.411 24.8757 134.688 24.0312C133.961 23.1825 133.591 21.9726 133.591 20.4353C133.591 18.8492 133.961 17.6078 134.689 16.7441C135.412 15.8861 136.429 15.4506 137.711 15.4506C138.954 15.4506 139.945 15.8665 140.653 16.6874C141.366 17.5126 141.728 18.7441 141.728 20.3486C141.728 21.9729 141.388 23.2206 140.718 24.0553C140.051 24.8836 139.049 25.3043 137.74 25.3043ZM137.899 12.5377C135.415 12.5377 133.443 13.2606 132.036 14.6859C130.631 16.1115 129.919 18.0843 129.919 20.55C129.919 22.892 130.614 24.7758 131.986 26.1482C133.358 27.521 135.226 28.2164 137.537 28.2164C139.944 28.2164 141.877 27.4836 143.283 26.0384C144.689 24.5949 145.402 22.6407 145.402 20.2326C145.402 17.8541 144.733 15.9562 143.414 14.5929C142.095 13.2291 140.239 12.5377 137.899 12.5377ZM124.135 12.5377C122.445 12.5377 121.048 12.967 119.981 13.8131C118.907 14.6643 118.362 15.7807 118.362 17.1316C118.362 17.8338 118.48 18.4576 118.711 18.9867C118.944 19.5175 119.304 19.9848 119.783 20.3771C120.258 20.7661 120.991 21.1736 121.963 21.5882C122.78 21.9221 123.389 22.2045 123.776 22.427C124.154 22.6451 124.423 22.8643 124.574 23.0779C124.721 23.2869 124.796 23.5729 124.796 23.9259C124.796 24.9307 124.039 25.4197 122.479 25.4197C121.901 25.4197 121.241 25.2998 120.518 25.0633C119.801 24.8305 119.123 24.4894 118.51 24.0522L118.361 23.9462V27.3755L118.416 27.4008C118.923 27.6334 119.564 27.8296 120.317 27.984C121.071 28.1385 121.754 28.2171 122.348 28.2171C124.182 28.2171 125.658 27.7858 126.736 26.9347C127.82 26.0776 128.369 24.9349 128.369 23.5372C128.369 22.5289 128.073 21.6644 127.49 20.967C126.911 20.2754 125.906 19.6405 124.504 19.0791C123.387 18.634 122.673 18.2645 122.377 17.9809C122.092 17.707 121.949 17.3194 121.949 16.8287C121.949 16.3937 122.126 16.0452 122.493 15.763C122.861 15.4794 123.375 15.3351 124.019 15.3351C124.616 15.3351 125.228 15.4288 125.836 15.6126C126.444 15.7963 126.978 16.0424 127.423 16.3434L127.57 16.4428V13.1898L127.513 13.1658C127.102 12.9908 126.561 12.841 125.902 12.7194C125.246 12.5987 124.652 12.5377 124.135 12.5377ZM109.012 25.3043C107.71 25.3043 106.683 24.8757 105.96 24.0312C105.232 23.1825 104.864 21.9729 104.864 20.4353C104.864 18.8492 105.233 17.6078 105.961 16.7441C106.684 15.8861 107.7 15.4506 108.982 15.4506C110.226 15.4506 111.216 15.8665 111.925 16.6874C112.638 17.5126 113 18.7441 113 20.3486C113 21.9729 112.659 23.2206 111.988 24.0553C111.323 24.8836 110.321 25.3043 109.012 25.3043ZM109.171 12.5377C106.687 12.5377 104.714 13.2606 103.308 14.6859C101.903 16.1115 101.189 18.0843 101.189 20.55C101.189 22.8929 101.885 24.7758 103.258 26.1482C104.63 27.521 106.498 28.2164 108.807 28.2164C111.216 28.2164 113.149 27.4836 114.555 26.0384C115.961 24.5949 116.673 22.6407 116.673 20.2326C116.673 17.8541 116.005 15.9562 114.685 14.5929C113.366 13.2291 111.51 12.5377 109.171 12.5377ZM95.7449 15.4885V12.8981H92.2019V27.8557H95.7449V20.2043C95.7449 18.9033 96.0419 17.8344 96.6281 17.0271C97.2068 16.2294 97.9782 15.8252 98.9193 15.8252C99.2382 15.8252 99.5969 15.8774 99.9848 15.9808C100.369 16.0836 100.647 16.1952 100.811 16.3126L100.96 16.4198V12.8726L100.903 12.8481C100.573 12.7088 100.105 12.6386 99.5153 12.6386C98.6247 12.6386 97.8285 12.9227 97.1456 13.4821C96.5466 13.9738 96.1136 14.6479 95.7825 15.4885H95.7449ZM85.857 12.5377C84.2315 12.5377 82.7818 12.8839 81.5485 13.5662C80.3128 14.2501 79.3571 15.2265 78.7069 16.4681C78.0595 17.7066 77.7308 19.1533 77.7308 20.7667C77.7308 22.18 78.0495 23.4769 78.6794 24.62C79.3096 25.765 80.2016 26.6606 81.3307 27.2819C82.4581 27.9023 83.7612 28.2169 85.2041 28.2169C86.8878 28.2169 88.3255 27.8826 89.478 27.2233L89.5246 27.1968V23.9733L89.3757 24.0813C88.8536 24.459 88.2701 24.7605 87.6423 24.9777C87.0161 25.1947 86.4452 25.3043 85.9446 25.3043C84.5543 25.3043 83.4383 24.8724 82.6281 24.0207C81.8164 23.1678 81.4046 21.9704 81.4046 20.4635C81.4046 18.9472 81.834 17.7189 82.68 16.8126C83.5234 15.909 84.6416 15.4506 86.003 15.4506C87.1676 15.4506 88.3023 15.8422 89.376 16.6157L89.5246 16.7228V13.3264L89.4766 13.2995C89.0726 13.0749 88.5216 12.8895 87.8375 12.7488C87.1563 12.6085 86.49 12.5377 85.857 12.5377ZM75.2907 12.8983H71.7477V27.8557H75.2907V12.8983ZM73.5555 6.52627C72.9723 6.52627 72.4637 6.72341 72.0459 7.11406C71.6263 7.50581 71.4135 7.99904 71.4135 8.58114C71.4135 9.15409 71.6237 9.63833 72.0394 10.0197C72.4522 10.3999 72.9624 10.5926 73.5556 10.5926C74.1486 10.5926 74.6607 10.3999 75.0785 10.0203C75.4991 9.63833 75.7124 9.15424 75.7124 8.58114C75.7124 8.01941 75.5048 7.53121 75.0958 7.12984C74.6872 6.72925 74.1687 6.52627 73.5555 6.52627ZM64.7154 11.7947V27.8557H68.3312V6.98415H63.3268L56.9658 22.487L50.7929 6.98415H45.5847V27.8556H48.9826V11.7931H49.0993L55.6177 27.8557H58.182L64.5987 11.7947H64.7154Z" fill="#333333"/>
<path d="M16.6673 16.5626H0V0.0106201H16.6673V16.5626Z" fill="#333333"/>
<path d="M35.0702 16.5615H18.4032V0.00952148H35.0702V16.5615Z" fill="#333333"/>
<path d="M16.6669 34.8432H0V18.2914H16.6669V34.8432Z" fill="#333333"/>
<path d="M35.0702 34.8432H18.4032V18.2914H35.0702V34.8432Z" fill="#333333"/>
</g>
</g>
<defs>
<clipPath id="clip0_1_641">
<rect width="164.3" height="34.9988" fill="white" transform="translate(0 0.000610352)"/>
</clipPath>
</defs>
</svg>
