<svg width="85" height="35" viewBox="0 0 85 35" fill="none" xmlns="http://www.w3.org/2000/svg">
<g clip-path="url(#clip0_1_595)">
<mask id="mask0_1_595" style="mask-type:luminance" maskUnits="userSpaceOnUse" x="0" y="0" width="84" height="35">
<path d="M83.8222 0.777832H0.757446V34.8937H83.8222V0.777832Z" fill="white"/>
</mask>
<g mask="url(#mask0_1_595)">
<path d="M42.1531 34.8937C65.0132 34.8937 83.5432 27.255 83.5432 17.8386C83.5432 8.41652 65.0132 0.777832 42.1531 0.777832C19.293 0.777832 0.757446 8.41652 0.757446 17.8386C0.757446 27.255 19.293 34.8937 42.1531 34.8937Z" fill="#333333"/>
<path d="M52.5109 13.6303L53.595 9.30823H39.4634L38.3851 13.6303H43.0105L40.7403 22.7115H45.6098L47.88 13.6303H52.5109Z" fill="white"/>
<path d="M38.2489 9.30823H31.2001L26.711 19.2414V9.30823H19.8836L15.6101 26.3633H20.3035L23.0845 15.3567V26.3633H26.711L32.0514 15.3567L29.4919 26.3633H33.9754L38.2489 9.30823Z" fill="white"/>
<path d="M68.6913 9.30823H64.2078L61.8639 18.3838L59.7243 9.30823H54.8094L50.5416 26.3633H55.0308L57.3747 17.0833L59.7243 26.3633H64.4235L68.6913 9.30823Z" fill="white"/>
<path d="M40.434 23.9269L39.8212 26.3634H44.6962L45.3035 23.9269H40.434Z" fill="white"/>
</g>
</g>
<defs>
<clipPath id="clip0_1_595">
<rect width="84.1892" height="35" fill="white" transform="translate(0.480347)"/>
</clipPath>
</defs>
</svg>
