<svg width="181" height="35" viewBox="0 0 181 35" fill="none" xmlns="http://www.w3.org/2000/svg">
<g clip-path="url(#clip0_1_616)">
<mask id="mask0_1_616" style="mask-type:luminance" maskUnits="userSpaceOnUse" x="0" y="0" width="181" height="35">
<path d="M180.32 0.000732422H0.179932V34.2231H180.32V0.000732422Z" fill="white"/>
</mask>
<g mask="url(#mask0_1_616)">
<path d="M48.3893 27.7537V34.2231H44.3318V13.1627H48.3893V14.1704C49.5976 13.3847 51.0054 12.9608 52.4467 12.9486C57.0542 12.9486 60.4422 16.6115 60.4422 20.9755C60.4422 25.3396 57.0857 29.0026 52.4467 29.0026C50.9992 29.0049 49.5849 28.5697 48.3893 27.7537ZM48.3893 19.055V22.7789C48.7093 23.4603 49.2067 24.0433 49.8293 24.4666C50.452 24.8898 51.177 25.1379 51.9284 25.1849C52.6799 25.2318 53.4301 25.0759 54.1006 24.7334C54.7712 24.3909 55.3372 23.8745 55.7396 23.2381C56.1421 22.6018 56.366 21.8689 56.388 21.1164C56.41 20.3638 56.2293 19.6191 55.8648 18.9603C55.5003 18.3016 54.9653 17.753 54.316 17.3718C53.6666 16.9907 52.9268 16.7913 52.174 16.7941C51.3955 16.7831 50.6294 16.9888 49.961 17.388C49.2927 17.7873 48.7485 18.3644 48.3893 19.055Z" fill="#333333"/>
<path d="M62.6399 8.91808C62.6266 8.61094 62.6764 8.30434 62.786 8.01713C62.8956 7.72991 63.0628 7.46816 63.2773 7.24794C63.4918 7.02773 63.7491 6.85372 64.0334 6.73662C64.3176 6.61952 64.6228 6.5618 64.9302 6.567C65.2418 6.5616 65.5513 6.6185 65.8406 6.73437C66.13 6.85023 66.3932 7.02275 66.6149 7.24176C66.8367 7.46076 67.0125 7.72186 67.1319 8.00973C67.2513 8.29759 67.312 8.60642 67.3105 8.91808C67.304 9.54488 67.0503 10.1437 66.6044 10.5845C66.1587 11.0252 65.557 11.272 64.9302 11.2714C64.6244 11.27 64.3221 11.2077 64.0408 11.0882C63.7594 10.9686 63.5047 10.7942 63.2915 10.575C63.0782 10.356 62.9108 10.0966 62.799 9.81214C62.6872 9.52764 62.633 9.22371 62.6399 8.91808ZM62.8856 13.1627H67.0062V28.7591H62.8856V13.1627Z" fill="#333333"/>
<path d="M69.4454 20.9169C69.4372 19.8672 69.6389 18.8264 70.0387 17.8558C70.4384 16.8851 71.0282 16.0042 71.7733 15.2648C72.5184 14.5253 73.4038 13.9422 74.3775 13.5499C75.3511 13.1575 76.3935 12.9638 77.4431 12.9801C78.8782 12.9808 80.2908 13.3371 81.5547 14.017V13.1627H85.5851V27.8732C85.5851 31.9307 82.073 34.1308 77.6798 34.1308C74.8102 34.1308 72.0624 33.2764 70.2614 31.8765L71.9407 28.9777C73.6524 30.0743 75.6471 30.6471 77.6798 30.6256C80.5178 30.6256 81.4036 29.4985 81.5253 27.6658C80.3028 28.4478 78.8852 28.8704 77.4341 28.8853C72.7635 28.8808 69.4454 25.4026 69.4454 20.9169ZM81.5547 22.6548V19.1767C81.2137 18.451 80.6744 17.8365 79.9992 17.4041C79.3239 16.9718 78.5401 16.7392 77.7384 16.7333C77.1847 16.7279 76.6354 16.832 76.1221 17.0396C75.6089 17.2472 75.1417 17.5543 74.7474 17.9431C74.3532 18.3319 74.0397 18.7948 73.8249 19.3051C73.6102 19.8155 73.4985 20.3632 73.4961 20.9169C73.4961 23.3266 75.3264 25.0059 77.709 25.0059C78.5085 25.0268 79.297 24.8159 79.9793 24.3988C80.6617 23.9816 81.2088 23.376 81.5547 22.6548Z" fill="#333333"/>
<path d="M88.0308 20.9169C88.0225 19.8672 88.2243 18.8264 88.624 17.8558C89.0238 16.8851 89.6135 16.0042 90.3587 15.2648C91.1038 14.5253 91.9892 13.9422 92.9629 13.5499C93.9366 13.1575 94.9789 12.9638 96.0285 12.9801C97.4666 12.9796 98.8825 13.3358 100.149 14.017V13.1627H104.177V27.8732C104.177 31.9307 100.668 34.1308 96.2742 34.1308C93.4047 34.1308 90.6569 33.2764 88.8558 31.8765L90.5351 28.9777C92.2467 30.0746 94.2415 30.6474 96.2742 30.6256C99.1122 30.6256 99.998 29.4985 100.12 27.6658C98.8971 28.4475 97.4796 28.87 96.0285 28.8853C91.3579 28.8808 88.0308 25.4026 88.0308 20.9169ZM100.149 22.6548V19.1767C99.8079 18.4512 99.2686 17.8369 98.5934 17.4045C97.9182 16.9722 97.1345 16.7394 96.3328 16.7333C95.7791 16.7279 95.2299 16.832 94.7166 17.0396C94.2033 17.2472 93.7361 17.5543 93.3419 17.9431C92.9477 18.3319 92.6341 18.7948 92.4194 19.3051C92.2047 19.8155 92.0929 20.3632 92.0905 20.9169C92.0905 23.3266 93.9208 25.0059 96.3035 25.0059C97.1029 25.0265 97.8912 24.8155 98.5735 24.3984C99.2558 23.9813 99.803 23.3758 100.149 22.6548Z" fill="#333333"/>
<path d="M110.096 13.1627L114.188 23.5701L118.398 13.1627H122.681L113.699 34.2231H109.884L112.139 28.6081L105.581 13.1627H110.096Z" fill="#333333"/>
<path d="M121.904 13.1627H126.268L130.244 23.694L134.183 13.1627H138.465L132.207 28.7591H128.103L121.904 13.1627Z" fill="#333333"/>
<path d="M138.754 20.8538C138.754 16.4605 141.896 12.8268 146.81 12.8268C151.359 12.8268 154.814 16.2464 154.898 20.7388C154.929 21.1252 154.929 21.5134 154.898 21.8998H142.599C142.721 24.0976 144.826 25.5312 147.085 25.5312C148.947 25.5312 150.044 25.0127 151.327 23.9533L153.556 26.3043C151.753 28.1956 149.949 29.0815 147.085 29.0815C141.806 29.0657 138.754 25.1277 138.754 20.8538ZM142.811 18.9919H150.687C150.29 17.529 148.884 16.2464 146.749 16.2464C144.276 16.2464 143.239 17.4975 142.811 18.9919Z" fill="#333333"/>
<path d="M155.75 27.0821L157.745 23.8451C159.535 25.0386 161.634 25.6854 163.786 25.707C165.833 25.707 166.869 25.1885 166.869 24.3049C166.869 23.7233 166.38 23.2974 165.344 23.0832L161.06 22.168C157.918 21.4918 156.483 20.0017 156.483 17.5605C156.483 14.9661 158.681 12.7975 163.229 12.7975C165.975 12.7975 168.413 13.5932 170.095 14.6302L168.233 17.7431C166.861 17.0105 165.03 16.2171 163.105 16.2171C161.367 16.2171 160.359 16.6454 160.359 17.4366C160.359 17.9573 160.727 18.2931 161.733 18.4757L165.338 19.152C169.245 19.9138 170.749 21.6541 170.749 24.0052C170.749 27.3864 167.367 29.1626 163.667 29.1626C160.885 29.2164 158.144 28.496 155.75 27.0821Z" fill="#333333"/>
<path d="M171.56 13.1627H173.88V8.85954L177.937 6.23572V13.1627H180.318V16.7039H177.939V28.7614H173.882V16.7039H171.558V13.1627H171.56Z" fill="#333333"/>
<path d="M34.1725 15.6716C34.1047 14.6815 33.9425 13.7002 33.6878 12.7411C32.5269 8.45827 30.0811 5.08833 26.3528 2.68316C24.0044 1.15586 21.307 0.249228 18.5129 0.0480639C17.339 -0.0376775 16.1595 -0.00596209 14.9919 0.142738C13.7619 0.305544 12.5528 0.599505 11.3853 1.0196C8.27639 2.14103 5.56307 4.1467 3.57907 6.7899C1.59506 9.43311 0.426893 12.5986 0.218252 15.897C0.179932 16.5033 0.179932 17.1142 0.179932 17.7228V32.519C0.179932 32.9035 0.332638 33.2721 0.604456 33.5439C0.876274 33.8158 1.24494 33.9684 1.62935 33.9684H7.34586C7.70361 33.9663 8.0481 33.8329 8.31401 33.5935C8.57993 33.3542 8.74877 33.0256 8.78851 32.6701C8.82613 32.5311 8.84582 32.3879 8.84712 32.244V31.9014C8.84375 31.8752 8.84375 31.8487 8.84712 31.8225V31.7842C8.88611 31.7945 8.92282 31.8121 8.95531 31.836C11.0935 33.0184 13.4616 33.7258 15.8981 33.9099C16.874 33.982 17.8542 33.9722 18.8284 33.8805C21.122 33.6693 23.3479 32.9907 25.3693 31.8866C27.3905 30.7825 29.1645 29.2764 30.5816 27.4608C32.6015 24.9197 33.8376 21.8453 34.1386 18.6132C34.2406 17.6358 34.2519 16.651 34.1725 15.6716ZM20.2419 25.1254C20.2318 25.1775 20.2036 25.2244 20.1624 25.2578C20.1211 25.2911 20.0694 25.309 20.0164 25.308H14.381C14.328 25.309 14.2762 25.2911 14.2351 25.2578C14.1938 25.2244 14.1657 25.1775 14.1556 25.1254V25.0894V24.8797C14.1544 24.621 14.1831 24.3631 14.2412 24.1111C14.2774 24.0254 14.2999 23.9239 14.3359 23.8293C14.372 23.7346 14.4081 23.6467 14.4441 23.5543C14.4803 23.4618 14.5388 23.3785 14.5885 23.2996L14.6696 23.1778C14.7226 23.0991 14.7805 23.0237 14.8431 22.9524C14.9085 22.8713 14.9739 22.8014 15.0392 22.727C15.3784 22.3935 15.7905 22.1434 16.243 21.9966C15.8532 21.7845 15.5452 21.4486 15.3673 21.0419C15.1894 20.6353 15.1519 20.1811 15.2606 19.7509C15.3693 19.3206 15.6181 18.9387 15.9678 18.6654C16.3175 18.3921 16.7482 18.2428 17.1919 18.2413C17.7219 18.2453 18.2291 18.4564 18.6053 18.8296C18.8231 19.0487 18.9871 19.3155 19.0843 19.6088C19.1815 19.9021 19.2094 20.2139 19.1658 20.5198C19.122 20.8256 19.008 21.1172 18.8325 21.3715C18.657 21.6259 18.4249 21.836 18.1545 21.9854C18.7632 22.186 19.2929 22.574 19.6678 23.0938C20.0427 23.6137 20.2436 24.2388 20.2419 24.8797C20.2419 24.9609 20.2419 25.0488 20.2419 25.1254ZM29.9572 12.8493H4.44928C4.40147 12.849 4.35441 12.8374 4.31199 12.8153C4.26957 12.7932 4.23299 12.7614 4.20527 12.7225C4.17754 12.6835 4.15945 12.6385 4.15249 12.5913C4.14554 12.5439 4.14992 12.4956 4.16526 12.4504C5.11704 9.75306 6.88204 7.41737 9.21697 5.76525C11.5519 4.11313 14.3418 3.22593 17.2021 3.22593C20.0624 3.22593 22.8524 4.11313 25.1873 5.76525C27.5222 7.41737 29.2872 9.75306 30.2389 12.4504C30.2543 12.4954 30.2587 12.5435 30.2518 12.5907C30.245 12.6378 30.2271 12.6827 30.1996 12.7216C30.1721 12.7605 30.1359 12.7923 30.0938 12.8145C30.0516 12.8368 30.0048 12.8487 29.9572 12.8493Z" fill="#333333"/>
</g>
</g>
<defs>
<clipPath id="clip0_1_616">
<rect width="180.14" height="34.9986" fill="white" transform="translate(0.179932 0.000732422)"/>
</clipPath>
</defs>
</svg>
