<svg width="115" height="27" viewBox="0 0 115 27" fill="none" xmlns="http://www.w3.org/2000/svg">
<g clip-path="url(#clip0_1_633)">
<path d="M114.159 11.7307C114.159 5.13732 109.565 0.5 103.126 0.5C94.928 0.5 89.4336 6.45599 89.4336 14.9614C89.4336 21.5987 94.0714 26.1921 100.621 26.1921C106.577 26.1921 111.016 23.313 112.84 18.7196H106.225C105.346 20.1481 103.478 21.0493 101.192 21.0493C97.6756 21.0493 95.4775 18.7196 95.2801 15.4229H113.785C114.027 14.1702 114.159 13.0933 114.159 11.7307ZM95.7853 10.9614C96.3791 7.92848 99.3241 5.51094 102.884 5.51094C105.961 5.51094 108.291 7.75266 108.291 10.9614H95.7853Z" fill="#333333"/>
<path d="M71.6538 25.5987L72.8407 19.2691C76.4666 19.9944 77.0161 17.9504 77.9613 13.0274L78.4229 10.5879C79.7412 3.70884 82.4009 0.280298 90.0049 1.20336L88.818 7.533C85.1921 6.80771 84.5547 9.55496 83.7417 13.8186L83.28 16.2582C81.9611 23.2251 79.2142 26.5218 71.6538 25.5987Z" fill="#333333"/>
<path d="M62.7747 25.6207L67.2581 1.09338H73.1704L68.7086 25.6207H62.7747Z" fill="#333333"/>
<path d="M28.9067 1.09412H34.643L36.5111 18.8302L44.0275 1.09412H49.7198L51.7198 19.006L58.9724 1.09412H64.6867L54.2912 25.6213H47.7858L45.6759 8.74243L38.4891 25.6213H32.2035L28.9067 1.09412Z" fill="#333333"/>
<path d="M7.47845 7.59956L0.665283 14.105H12.2476L13.4564 11.2698H7.58828L11.2586 7.59956L9.12678 3.92926H19.0827L9.89595 25.6213H13.3465L23.742 1.09412H3.65427L7.47845 7.59956Z" fill="#333333"/>
</g>
<defs>
<clipPath id="clip0_1_633">
<rect width="113.838" height="26" fill="white" transform="translate(0.321167 0.5)"/>
</clipPath>
</defs>
</svg>
