<svg width="185" height="45" viewBox="0 0 185 45" fill="none" xmlns="http://www.w3.org/2000/svg">
<path d="M62.9786 15.4651H60.0369V30.5994H62.9786V15.4651Z" fill="#2A3362"/>
<path d="M74.364 25.2296C74.364 27.3184 73.02 28.2569 71.2305 28.2569C69.441 28.2569 68.245 27.3184 68.245 25.3355V19.942H65.3032V26.0184C65.3032 29.0438 67.2005 30.813 70.3558 30.813C72.3389 30.813 73.4473 30.0827 74.1905 29.2574H74.3621L74.6178 30.6012H77.324V19.942H74.364V25.2296Z" fill="#2A3362"/>
<path d="M103.221 28.4906C101.068 28.4906 99.8534 27.5101 99.6617 26.0823H108.998C109.041 25.7854 109.063 25.4858 109.062 25.1858C109.042 21.3516 106.14 19.7284 103.036 19.7284C99.4335 19.7284 96.7255 21.8829 96.7255 25.3574C96.7255 28.6604 99.3275 30.813 103.228 30.813C106.491 30.813 108.664 29.3651 109.113 27.1467H106.206C105.843 28.0213 104.798 28.4906 103.221 28.4906ZM103.038 22.0527C104.915 22.0527 106.002 22.8834 106.173 24.0611H99.7256C100.001 22.9327 101.09 22.0527 103.029 22.0527H103.038Z" fill="#2A3362"/>
<path d="M114.06 21.4721H113.877L113.6 19.9365H110.926V30.6012H113.868V26.0184C113.868 23.9497 115.061 22.7994 117.279 22.7994C117.682 22.7938 118.085 22.8293 118.481 22.9053V19.942H118.07C116.109 19.942 114.891 20.3474 114.06 21.4721Z" fill="#2A3362"/>
<path d="M132.925 27.2746H132.755L130.239 20.603H127.211L124.739 27.2545H124.547L122.202 19.942H119.281L122.883 30.6012H126.082L128.641 23.8H128.811L131.327 30.6012H134.546L138.149 19.942H135.227L132.925 27.2746Z" fill="#2A3362"/>
<path d="M149.857 27.4973V23.9296C149.857 21.0302 147.405 19.7302 144.355 19.7302C141.116 19.7302 139.091 21.2657 138.813 23.5645H141.755C141.969 22.5621 142.822 22.0089 144.355 22.0089C145.889 22.0089 146.912 22.584 146.912 23.7562V24.0282L142.115 24.3934C139.898 24.565 138.28 25.5455 138.28 27.6342C138.28 29.7869 140.136 30.8094 142.864 30.8094C145.066 30.8094 146.408 30.1959 147.23 29.2702H147.376C147.838 30.3109 148.774 30.5976 149.793 30.5976H151.03V28.4267H150.752C150.133 28.4267 149.857 28.129 149.857 27.4973ZM146.914 26.3671C146.914 28.0524 144.905 28.6056 143.183 28.6056C142.011 28.6056 141.244 28.308 141.244 27.4973C141.244 26.767 141.905 26.4109 142.887 26.3251L146.916 26.0275L146.914 26.3671Z" fill="#2A3362"/>
<path d="M160.733 19.942L157.3 27.6598H157.109L153.634 19.942H150.456L155.423 30.6012H158.942L163.887 19.942H160.733Z" fill="#2A3362"/>
<path d="M173.291 27.1467C172.925 28.0213 171.883 28.4906 170.305 28.4906C168.152 28.4906 166.938 27.5101 166.746 26.0823H176.083C176.126 25.7854 176.147 25.4858 176.147 25.1858C176.126 21.3516 173.225 19.7284 170.121 19.7284C166.518 19.7284 163.812 21.8829 163.812 25.3574C163.812 28.6604 166.412 30.813 170.312 30.813C173.576 30.813 175.748 29.3651 176.198 27.1467H173.291ZM170.113 22.0527C171.991 22.0527 173.077 22.8834 173.249 24.0611H166.803C167.082 22.9327 168.167 22.0527 170.106 22.0527H170.113Z" fill="#2A3362"/>
<path d="M55.2563 19.1569C55.2563 18.2184 55.9174 17.8149 56.7701 17.8149C57.1667 17.8186 57.5611 17.8757 57.9424 17.9847L58.4336 15.8522C57.7216 15.6004 56.9721 15.4708 56.2168 15.4687C54.042 15.4687 52.2945 16.6208 52.2945 19.0072V19.942H49.7563V22.2773H52.2945V30.6012H55.2563V22.2754H58.5724V19.942H55.2563V19.1569Z" fill="#2A3362"/>
<path d="M83.8154 16.9367H81.0763L80.9229 19.942H78.6075V22.2773H80.8682V27.532C80.8682 29.3213 81.7812 30.8185 84.5202 30.8185C85.2303 30.8185 85.9382 30.7401 86.6311 30.5848V28.3408C86.2316 28.4304 85.8243 28.4805 85.415 28.4906C83.945 28.4906 83.8172 27.6598 83.8172 27.0189V22.2718H86.7388V19.942H83.8154V16.9367Z" fill="#2A3362"/>
<path d="M93.0533 16.9367H90.3234L90.17 19.942H87.8491V22.2773H90.1097V27.532C90.1097 29.3213 91.0227 30.8185 93.7618 30.8185C94.4702 30.8163 95.1763 30.7361 95.8672 30.5793V28.3408C95.4677 28.4304 95.0604 28.4805 94.6511 28.4906C93.1811 28.4906 93.0533 27.6598 93.0533 27.0189V22.2718H95.9841V19.942H93.0533V16.9367Z" fill="#2A3362"/>
<path d="M8.80774 15.0616C8.80774 13.3508 9.30807 11.8901 10.358 10.8403L12.1841 12.6661C10.1517 14.6909 11.9266 20.9864 17.7133 26.7779C23.4999 32.5695 29.7997 34.3424 31.8303 32.3139L33.6563 34.1397C30.2307 37.5649 22.4281 35.1348 15.8964 28.6019C11.366 24.0702 8.80774 18.9287 8.80774 15.0616Z" fill="#009A46"/>
<path d="M20.3227 35.7135C18.6117 35.7135 17.1509 35.2133 16.0991 34.1634L17.9251 32.3376C19.9539 34.3661 26.25 32.5914 32.0422 26.8017C37.8343 21.0119 39.6056 14.7165 37.5768 12.688L39.4029 10.8622C42.8303 14.2874 40.398 22.0892 33.8645 28.6202C29.3323 33.1574 24.1902 35.7135 20.3227 35.7135Z" fill="#FF5805"/>
<path d="M34.4688 26.0074C33.3604 22.8159 31.0962 19.4052 28.0924 16.4036C21.5607 9.87074 13.7581 7.43873 10.3324 10.8658C10.0896 11.1105 10.2996 11.7148 10.8035 12.2188C11.3075 12.7227 11.9119 12.9308 12.1548 12.688C14.1853 10.6595 20.4815 12.4342 26.2718 18.2257C29.0108 20.9645 31.0523 24.0228 32.0366 26.8528C32.8985 29.3341 32.8145 31.3352 31.8101 32.3394C31.5655 32.5822 31.7773 33.1884 32.2794 33.6905C32.7816 34.1926 33.3878 34.4044 33.6325 34.1598C35.3873 32.4051 35.685 29.5057 34.4688 26.0074Z" fill="#F5AFCB"/>
<path d="M39.3991 10.8658C37.6406 9.10753 34.7446 8.80992 31.2423 10.0278C28.0522 11.1342 24.6393 13.4001 21.6374 16.4017C15.1057 22.9327 12.6734 30.7345 16.099 34.1616C16.3437 34.4044 16.9481 34.1945 17.4521 33.6923C17.9561 33.1902 18.1661 32.5841 17.9214 32.3394C15.8872 30.3109 17.6676 24.0154 23.4597 18.2239C26.1988 15.4852 29.2574 13.4439 32.0877 12.4598C34.5693 11.5998 36.5706 11.682 37.5767 12.6862C37.8196 12.929 38.4258 12.719 38.928 12.2151C39.4302 11.7112 39.642 11.1086 39.3991 10.8658Z" fill="#FF9B00"/>
</svg>
